<svg width="843" height="843" viewBox="0 0 843 843" fill="none" xmlns="http://www.w3.org/2000/svg">
<circle cx="421.055" cy="421.055" r="421.055" fill="#FF003D"/>
<path d="M484.15 195.555C358.564 195.555 256.745 296.499 256.745 421.055H319.919C319.919 331.244 393.582 258.201 484.15 258.201C574.717 258.201 648.381 331.271 648.381 421.055H711.555C711.555 296.526 609.735 195.555 484.15 195.555Z" fill="white"/>
<path d="M357.96 646.555C483.545 646.555 585.365 545.61 585.365 421.055H522.191C522.191 510.865 448.527 583.909 357.96 583.909C267.392 583.909 193.729 510.839 193.729 421.055H130.555C130.555 545.584 232.374 646.555 357.96 646.555Z" fill="white"/>
</svg>
